{
	"asset":{
		"generator":"Khronos glTF Blender I/O v3.5.30",
		"version":"2.0"
	},
	"scene":0,
	"scenes":[
		{
			"name":"Scene",
			"nodes":[
				3
			]
		}
	],
	"nodes":[
		{
			"mesh":0,
			"name":"Cube_0"
		},
		{
			"children":[
				0
			],
			"name":"Cube"
		},
		{
			"children":[
				1
			],
			"name":"Root"
		},
		{
			"children":[
				2
			],
			"name":"Sketchfab_model",
			"rotation":[
				-0.70710688829422,
				0,
				0,
				0.7071066498756409
			],
			"translation":[
				0,
				-1,
				0
			]
		}
	],
	"materials":[
		{
			"doubleSided":true,
			"name":"Material.001",
			"pbrMetallicRoughness":{
				"baseColorTexture":{
					"index":0
				},
				"metallicFactor":0,
				"roughnessFactor":0.6000000238418579
			}
		}
	],
	"meshes":[
		{
			"name":"Cube_0",
			"primitives":[
				{
					"attributes":{
						"POSITION":0,
						"TEXCOORD_0":1,
						"NORMAL":2
					},
					"indices":3,
					"material":0
				}
			]
		}
	],
	"textures":[
		{
			"sampler":0,
			"source":0
		}
	],
	"images":[
		{
			"mimeType":"image/png",
			"name":"Material.001_baseColor",
			"uri":"Material_001_baseColor.png"
		}
	],
	"accessors":[
		{
			"bufferView":0,
			"componentType":5126,
			"count":2694,
			"max":[
				0.6000000238418579,
				0.17885999381542206,
				1.7232400178909302
			],
			"min":[
				-0.6000000238418579,
				-0.14395999908447266,
				0
			],
			"type":"VEC3"
		},
		{
			"bufferView":1,
			"componentType":5126,
			"count":2694,
			"type":"VEC2"
		},
		{
			"bufferView":2,
			"componentType":5126,
			"count":2694,
			"type":"VEC3"
		},
		{
			"bufferView":3,
			"componentType":5123,
			"count":4626,
			"type":"SCALAR"
		}
	],
	"bufferViews":[
		{
			"buffer":0,
			"byteLength":32328,
			"byteOffset":0,
			"target":34962
		},
		{
			"buffer":0,
			"byteLength":21552,
			"byteOffset":32328,
			"target":34962
		},
		{
			"buffer":0,
			"byteLength":32328,
			"byteOffset":53880,
			"target":34962
		},
		{
			"buffer":0,
			"byteLength":9252,
			"byteOffset":86208,
			"target":34963
		}
	],
	"samplers":[
		{
			"magFilter":9729,
			"minFilter":9987
		}
	],
	"buffers":[
		{
			"byteLength":95460,
			"uri":"scene.bin"
		}
	]
}
